<svg id="imd_logo" data-name="imd_logo" xmlns="http://www.w3.org/2000/svg" viewBox="0 0 387.51 649.16"><defs><style>.cls-1,.cls-2{fill:#006838;}.cls-2{font-size:163.13px;font-family:Poppins-Black, Poppins;font-weight:800;}</style></defs><path class="cls-1" d="M452.83,339.38c-24.6,34.59-13.63,19.19-13.68,19.25a10.84,10.84,0,0,0,2.71,14.88l55.68,39.6a116,116,0,0,1,26.05-36.64l-55.67-39.59A10.85,10.85,0,0,0,452.83,339.38Z" transform="translate(-409.96 -272.45)"/><path class="cls-1" d="M588.61,345.55l-21.78-64.78a10.85,10.85,0,0,0-11.89-7.27c-3.83,1-.36-.05-23.67,7.78-6.87,2.75-8.72,8.84-7,13.81L546,359.87A117.16,117.16,0,0,1,588.61,345.55Z" transform="translate(-409.96 -272.45)"/><path class="cls-1" d="M659.42,358.61l20.42-65.09a10.85,10.85,0,0,0-7.05-13.58l-22.31-7a10.86,10.86,0,0,0-13.54,7.12L616.5,345.21A115.77,115.77,0,0,1,659.42,358.61Z" transform="translate(-409.96 -272.45)"/><path class="cls-1" d="M737,334.15l-54.74,40.63a115.77,115.77,0,0,1,26.82,36.08l54.72-40.61A10.84,10.84,0,0,0,766,355.13l-13.93-18.78A10.85,10.85,0,0,0,737,334.15Z" transform="translate(-409.96 -272.45)"/><path class="cls-1" d="M797.06,447.39a10.85,10.85,0,0,0-10.95-10.68L718,437.4a116.42,116.42,0,0,1-33.89,108.37c-81.21,77-215.52,5.48-194.88-106l-68.33.69a10.86,10.86,0,0,0-10.62,9.32c-3.64,67.38,26.84,130.84,81.16,169.47C621.5,711.72,807.42,615.68,797.06,447.39ZM734.63,553.63c-44.72,62.88-142.9,95.25-223.54,37.9a159.46,159.46,0,0,1-66.63-117.41l9.18-.09c3.9,49.71,32.23,94.07,78.31,119.09,58.53,31.79,127.42,22.87,175.49-22.71A150.06,150.06,0,0,0,754,471l9.2-.1C761.45,501.32,751.73,529.59,734.63,553.63Z" transform="translate(-409.96 -272.45)"/><circle class="cls-1" cx="193.89" cy="191.57" r="53.16"/><text class="cls-2" transform="translate(31.91 546.88)">IMD</text></svg>